<svg width="36" height="37" viewBox="0 0 36 37" fill="none" xmlns="http://www.w3.org/2000/svg">
<rect width="36" height="36.9" rx="9" fill="white"/>
<path d="M28 23.5135C28 23.8555 27.9239 24.207 27.7621 24.549C27.6004 24.891 27.3911 25.214 27.1152 25.518C26.649 26.031 26.1352 26.4015 25.5548 26.639C24.984 26.8765 24.3655 27 23.6996 27C22.7291 27 21.692 26.772 20.5979 26.3065C19.5038 25.841 18.4096 25.214 17.325 24.4255C16.2308 23.6275 15.1938 22.744 14.2043 21.7655C13.2243 20.7775 12.3395 19.742 11.5498 18.659C10.7697 17.576 10.1417 16.493 9.68503 15.4195C9.22834 14.3365 9 13.301 9 12.313C9 11.667 9.11417 11.0495 9.34251 10.4795C9.57086 9.9 9.9324 9.368 10.4367 8.893C11.0456 8.2945 11.7116 8 12.4156 8C12.682 8 12.9484 8.057 13.1863 8.171C13.4337 8.285 13.6525 8.456 13.8237 8.703L16.031 11.8095C16.2023 12.047 16.326 12.2655 16.4116 12.4745C16.4972 12.674 16.5448 12.8735 16.5448 13.054C16.5448 13.282 16.4782 13.51 16.345 13.7285C16.2213 13.947 16.0406 14.175 15.8122 14.403L15.0891 15.1535C14.9845 15.258 14.9369 15.3815 14.9369 15.5335C14.9369 15.6095 14.9464 15.676 14.9654 15.752C14.994 15.828 15.0225 15.885 15.0416 15.942C15.2128 16.2555 15.5078 16.664 15.9264 17.158C16.3545 17.652 16.8112 18.1555 17.306 18.659C17.8197 19.1625 18.3145 19.628 18.8187 20.0555C19.3135 20.4735 19.7226 20.7585 20.0461 20.9295C20.0936 20.9485 20.1507 20.977 20.2173 21.0055C20.2934 21.034 20.3696 21.0435 20.4552 21.0435C20.6169 21.0435 20.7406 20.9865 20.8453 20.882L21.5684 20.1695C21.8062 19.932 22.0346 19.7515 22.2534 19.6375C22.4722 19.5045 22.691 19.438 22.9289 19.438C23.1097 19.438 23.3 19.476 23.5093 19.5615C23.7186 19.647 23.9374 19.7705 24.1753 19.932L27.3245 22.1645C27.5719 22.3355 27.7431 22.535 27.8478 22.7725C27.9429 23.01 28 23.2475 28 23.5135Z" fill="#2C2C2C"/>
</svg>
