<svg width="44" height="41" viewBox="0 0 44 41" fill="none" xmlns="http://www.w3.org/2000/svg">
<rect x="0.5" y="0.5" width="43" height="40" rx="9.5" stroke="#454545"/>
<path d="M32 26.6867C32 27.0545 31.9199 27.4326 31.7496 27.8005C31.5794 28.1683 31.359 28.5158 31.0686 28.8427C30.5779 29.3945 30.0371 29.7931 29.4261 30.0485C28.8252 30.304 28.1743 30.4368 27.4732 30.4368C26.4517 30.4368 25.36 30.1916 24.2083 29.6909C23.0566 29.1902 21.9049 28.5158 20.7631 27.6676C19.5995 26.7992 18.5014 25.8428 17.4782 24.8065C16.4655 23.7662 15.5314 22.6492 14.684 21.4651C13.8628 20.3002 13.2018 19.1353 12.7211 17.9806C12.2404 16.8157 12 15.7019 12 14.6392C12 13.9443 12.1202 13.2801 12.3605 12.667C12.6009 12.0437 12.9815 11.4715 13.5123 10.9605C14.1532 10.3168 14.8543 10 15.5954 10C15.8758 10 16.1562 10.0613 16.4066 10.1839C16.667 10.3066 16.8973 10.4905 17.0776 10.7562L19.4011 14.0976C19.5814 14.353 19.7116 14.5881 19.8017 14.8129C19.8918 15.0275 19.9419 15.242 19.9419 15.4362C19.9419 15.6814 19.8718 15.9267 19.7316 16.1617C19.6014 16.3967 19.4111 16.642 19.1708 16.8872L18.4096 17.6945C18.2994 17.8069 18.2494 17.9397 18.2494 18.1032C18.2494 18.1849 18.2594 18.2565 18.2794 18.3382C18.3095 18.42 18.3395 18.4813 18.3595 18.5426C18.5398 18.8798 18.8503 19.3192 19.2909 19.8505C19.7416 20.3819 20.2223 20.9235 20.7431 21.4651C21.2839 22.0066 21.8047 22.5073 22.3355 22.9672C22.8563 23.4168 23.2869 23.7233 23.6274 23.9073C23.6775 23.9277 23.7376 23.9583 23.8077 23.989C23.8878 24.0197 23.968 24.0299 24.0581 24.0299C24.2283 24.0299 24.3585 23.9686 24.4687 23.8562L25.2298 23.0898C25.4802 22.8343 25.7206 22.6402 25.9509 22.5175C26.1813 22.3745 26.4116 22.303 26.662 22.303C26.8523 22.303 27.0526 22.3438 27.2729 22.4358C27.4932 22.5278 27.7236 22.6606 27.974 22.8343L31.2889 25.2356C31.5493 25.4196 31.7296 25.6342 31.8398 25.8896C31.9399 26.1451 32 26.4005 32 26.6867Z" fill="white"/>
</svg>
